<?xml version="1.0" standalone="no"?>
<!DOCTYPE svg PUBLIC "-//W3C//DTD SVG 1.1//EN" "http://www.w3.org/Graphics/SVG/1.1/DTD/svg11.dtd">
<svg xmlns="http://www.w3.org/2000/svg">
<metadata>This SVG font generated by Fontastic.me</metadata>
<defs>
<font id="spina" horiz-adv-x="512">
  <font-face font-family="spina" font-weight="500" font-stretch="normal" units-per-em="512" panose-1="2 0 6 9 0 0 0 0 0 0" ascent="480" descent="-32" x-height="395" cap-height="362" bbox="-0.189193 -32 512.714 480" underline-thickness="50" underline-position="-100" unicode-range="U+0041-007A"/>
    <missing-glyph/>
    <glyph glyph-name="a" unicode="a" d="M437 -7h-360c-32 0 -57 12 -69 33s-9 47 7 75l180 310c16 28 38 43 62 43s47 -15 63 -43l179 -310c16 -28 18 -54 6 -75s-36 -33 -68 -33zM257 427c-14 0 -28 -11 -39 -30l-180 -309c-23 -40 -5 -68 39 -68h360c43 0 62 28 39 68l-180 309c-11 19 -25 30 -39 30zM259 52 c-23 0 -42 19 -42 42s19 42 42 42s42 -19 42 -42s-19 -42 -42 -42zM259 109c-8 0 -15 -7 -15 -15s7 -15 15 -15s15 7 15 15s-7 15 -15 15zM292 338c8 0 15 -7 14 -15l-14 -164c-1 -7 -6 -12 -13 -12h-40c-7 0 -13 5 -14 12l-13 164c-1 8 5 15 13 15h67zM251 174h15l12 137 h-38z"/>
    <glyph glyph-name="b" unicode="b" d="M400 426h-288l-86 -231v-173l460 1v172zM83 195l58 178h230l58 -178h-109l-29 -52h-72l-27 52h-109zM26 -3c-14 0 -26 11 -26 25v173c0 3 1 6 2 9l86 231c4 10 13 16 24 16h288c11 0 20 -6 24 -16l86 -231c1 -3 2 -6 2 -9v-172c0 -14 -12 -26 -26 -26h-460zM118 221h74 c10 0 19 -5 23 -14l20 -39h41l22 40c5 8 13 13 22 13h74l-41 127h-194z"/>
    <glyph glyph-name="c" unicode="c" d="M511 284c13 -112 -90 -215 -231 -231c-25 -3 -50 -3 -74 0c-83 -85 -172 -68 -154 -55c43 32 52 64 49 89c-55 31 -93 81 -100 140c-13 112 90 216 231 232s266 -63 279 -175z"/>
    <glyph glyph-name="d" unicode="d" d="M83 -14c-14 0 -31 3 -35 16c-2 5 -1 13 7 19c28 21 41 42 41 65c-54 33 -88 84 -95 140c-5 47 9 95 41 135c43 54 112 90 190 99c12 1 24 2 36 2c127 0 231 -77 243 -179c5 -47 -9 -96 -41 -136c-43 -54 -112 -89 -190 -98c-12 -1 -23 -2 -35 -2c-10 0 -22 0 -32 1 c-58 -57 -114 -62 -130 -62zM268 435c-11 0 -22 -1 -33 -2c-70 -8 -132 -41 -171 -89c-69 -87 -34 -189 52 -238c4 -2 7 -6 7 -10c2 -21 -2 -52 -35 -83c29 2 71 18 111 59c3 3 7 5 11 4c11 -1 23 -2 35 -2c11 0 21 1 32 2c70 8 132 40 171 88c28 35 41 76 36 116 c-10 88 -103 155 -216 155z"/>
    <glyph glyph-name="e" unicode="e" d="M64 45v207h384v-207h-384zM90 226v-156h332v156h-332zM486 431c14 0 26 -12 26 -26v-399c0 -14 -12 -25 -26 -25h-460c-14 0 -26 11 -26 25v399c0 14 12 26 26 26h81c4 23 20 36 47 36s43 -13 47 -36h111c4 23 20 36 47 36s43 -13 47 -36h80zM359 442 c-16 0 -23 -6 -23 -20v-77c0 -14 7 -20 23 -20s22 6 22 20v77c0 14 -6 20 -22 20zM154 442c-16 0 -22 -6 -22 -20v-77c0 -14 6 -20 22 -20s22 6 22 20v77c0 14 -6 20 -22 20zM486 6v399h-80v-60c0 -28 -17 -45 -47 -45s-48 17 -48 45v60h-109v-60c0 -28 -18 -45 -48 -45 s-48 17 -48 45v60h-80v-399h460z"/>
    <glyph glyph-name="f" unicode="f" d="M499 270c7 -1 13 -8 13 -16v-60c0 -8 -6 -15 -13 -16l-77 -14c-7 -1 -10 -8 -6 -14l44 -65c4 -6 3 -16 -2 -21l-42 -42c-5 -5 -15 -6 -21 -2l-65 44c-6 4 -13 1 -14 -6l-14 -77c-1 -7 -8 -13 -16 -13h-60c-8 0 -15 6 -16 13l-14 77c-1 7 -8 10 -14 6l-65 -44 c-6 -4 -16 -3 -21 2l-42 42c-5 5 -6 15 -2 21l44 65c4 6 1 13 -6 14l-77 14c-7 1 -13 8 -13 16v60c0 8 6 15 13 16l77 14c7 1 10 8 6 14l-44 65c-4 6 -3 16 2 21l42 42c5 5 15 6 21 2l65 -44c6 -4 13 -1 14 6l14 77c1 7 8 13 16 13h60c8 0 15 -6 16 -13l14 -77 c1 -7 8 -10 14 -6l65 44c6 4 16 3 21 -2l42 -42c5 -5 6 -15 2 -21l-44 -65c-4 -6 -1 -13 6 -14zM256 131c51 0 92 42 92 93s-41 92 -92 92s-93 -41 -93 -92s42 -93 93 -93z"/>
    <glyph glyph-name="g" unicode="g" d="M0 175c23 101 103 180 205 200l-2 -129c-43 -18 -74 -57 -83 -103zM307 369c102 -20 182 -99 205 -200l-119 -32c-9 47 -40 85 -83 103l-1 31c47 -16 85 -53 103 -99l65 17c-27 76 -91 133 -169 151zM274 99c17 -7 29 -24 29 -43c0 -26 -21 -47 -47 -47s-46 21 -46 47 c0 20 12 36 29 43l7 328c0 6 4 11 10 11s11 -5 11 -11z"/>
    <glyph glyph-name="h" unicode="h" d="M410 373c48 -42 78 -104 78 -173c0 -128 -104 -232 -232 -232s-232 104 -232 232c0 69 30 131 78 173c16 14 40 13 54 -3s12 -39 -4 -53c-32 -29 -52 -70 -52 -117c0 -86 70 -156 156 -156s156 70 156 156c0 46 -20 88 -52 117c-16 14 -17 37 -3 53s37 17 53 3zM257 162 c-21 0 -38 16 -38 37v243c0 21 17 38 38 38s37 -17 37 -38v-243c0 -21 -16 -37 -37 -37z"/>
    <glyph glyph-name="i" unicode="i" d="M210 145c-22 16 -32 53 -50 100c-2 0 -3 -1 -5 -1c-3 0 -5 1 -7 2c-9 5 -13 35 -13 49c0 18 7 19 9 19h1h1v5c0 20 -4 52 1 70c8 27 17 57 37 57c19 22 53 26 76 26c12 0 21 -1 24 -1c11 0 40 -9 60 -30c14 -15 12 -25 20 -52c5 -18 1 -51 1 -70v-5h1h1c2 0 9 -1 9 -19 c0 -14 -5 -44 -14 -49c-2 -1 -3 -2 -6 -2c-1 0 -3 1 -5 1c-18 -47 -29 -83 -51 -100c71 -9 111 -37 144 -52c68 -30 68 -63 68 -63v-56h-512v56s1 33 68 63c33 15 72 43 142 52z"/>
    <glyph glyph-name="j" unicode="j" d="M506 428c6 -7 10 -21 0 -37c-4 -3 -249 -163 -298 -364l-1 -4c-4 -3 -12 -10 -30 -10c-10 0 -19 4 -27 10c-2 3 -74 122 -142 161l-3 2c-2 4 -10 18 -1 34l5 8l155 -77c23 33 121 162 330 279l7 4z"/>
    <glyph glyph-name="k" unicode="k" d="M498 44c17 -17 20 -46 2 -64c-8 -8 -19 -12 -30 -12v0c-12 0 -25 6 -34 15l-137 136c-30 -19 -66 -29 -104 -29c-108 0 -195 87 -195 195s87 195 195 195s195 -87 195 -195c0 -38 -10 -74 -29 -104zM304 285c0 60 -49 109 -109 109s-109 -49 -109 -109s49 -109 109 -109 s109 49 109 109z"/>
    <glyph glyph-name="l" unicode="l" d="M499 373l-118 -119c-17 -17 -17 -43 0 -60l118 -119c17 -17 17 -44 0 -61l-33 -33c-17 -17 -44 -17 -61 0l-119 118c-17 17 -43 17 -60 0l-119 -118c-17 -17 -44 -17 -61 0l-33 33c-17 17 -17 44 0 61l118 119c17 17 17 43 0 60l-118 119c-17 17 -17 44 0 61l33 33 c17 17 44 17 61 0l119 -118c17 -17 43 -17 60 0l119 118c17 17 44 17 61 0l33 -33c17 -17 17 -44 0 -61z"/>
    <glyph glyph-name="m" unicode="m" d="M256 480c141 0 256 -115 256 -256s-115 -256 -256 -256s-256 115 -256 256s115 256 256 256zM326 208c-9 9 -9 24 0 33l67 67c9 9 9 25 0 34l-19 19c-9 9 -25 9 -34 0l-67 -67c-9 -9 -24 -9 -33 0l-67 67c-9 9 -25 9 -34 0l-19 -19c-9 -9 -9 -25 0 -34l67 -67 c9 -9 9 -24 0 -33l-67 -67c-9 -9 -9 -25 0 -34l19 -19c9 -9 25 -9 34 0l67 67c9 9 25 9 34 0l66 -67c9 -9 25 -9 34 0l19 19c9 9 9 25 0 34z"/>
    <glyph glyph-name="n" unicode="n" d="M512 224c0 -141 -115 -256 -256 -256s-256 115 -256 256s115 256 256 256s256 -115 256 -256z"/>
    <glyph glyph-name="o" unicode="o" d="M6 181c-8 8 -8 21 0 29l51 51c8 8 21 8 29 0l83 -83c8 -8 21 -8 29 0l228 228c8 8 21 8 29 0l51 -50c8 -8 8 -21 0 -29l-276 -277c-8 -8 -24 -14 -35 -14h-24c-11 0 -27 6 -35 14z"/>
    <glyph glyph-name="p" unicode="p" d="M426 349c48 -3 86 -43 86 -91c0 -49 -93 -242 -93 -242s-29 61 -55 124c13 30 25 61 35 90c6 -3 13 -5 20 -5c23 0 42 18 42 41c0 22 -17 41 -39 42c3 13 4 23 4 32v9zM92 225c8 0 16 2 22 6c10 -28 22 -59 34 -89c-26 -63 -55 -126 -55 -126s-93 192 -93 242 c0 48 39 89 87 91v-9c0 -9 1 -19 4 -32c-22 -1 -40 -19 -40 -42s18 -41 41 -41zM256 479h1h2c77 0 139 -63 139 -139s-141 -371 -141 -371s-142 295 -142 371s62 139 139 139h2zM256 416c-35 0 -63 -29 -63 -64s28 -63 63 -63s64 28 64 63s-29 64 -64 64z"/>
    <glyph glyph-name="q" unicode="q" d="M512 357l-330 -330l-182 -59l59 182l330 330zM44 12l123 40l-83 83z"/>
    <glyph glyph-name="r" unicode="r" d="M414 213c22 6 53 14 77 24v-197c0 -24 -20 -44 -44 -44h-382c-24 0 -44 20 -44 44v197c24 -10 56 -19 77 -24c52 -13 121 -26 158 -26s106 13 158 26zM405 66l10 44l-62 15l-10 -44zM167 369v29c0 2 1 54 90 54c88 0 89 -53 89 -55v-28h118c26 0 48 -20 48 -44v-43 c0 -24 -193 -69 -256 -69s-256 45 -256 69v43c0 24 22 44 48 44h119zM205 398v-29h103v27c-1 5 -12 18 -51 18c-45 0 -52 -16 -52 -16z"/>
    <glyph glyph-name="s" unicode="s" d="M512 192v-192h-512v192l96 256h320zM327 192h121l-64 198h-256l-64 -198h121l30 -58h79z"/>
    <glyph glyph-name="t" unicode="t" d="M328 296h184v-144h-184v-184h-144v184h-184v144h184v184h144v-184z"/>
    <glyph glyph-name="u" unicode="u" d="M405 362c59 0 107 -48 107 -107c0 -48 -72 -200 -86 -230c-4 -9 -13 -14 -23 -14s-19 5 -23 14c-6 13 -24 50 -41 91c-28 -64 -54 -120 -60 -132c-4 -9 -13 -15 -23 -15s-19 6 -23 15c-6 12 -32 68 -60 133c-18 -41 -35 -79 -41 -92c-4 -9 -13 -14 -23 -14s-19 5 -23 14 c-14 30 -86 182 -86 230c0 28 11 56 31 76s48 31 76 31v0c15 67 76 117 147 117v0h2h1h2c71 0 131 -50 146 -117zM119 257c-2 5 -3 11 -5 16c-2 1 -3 1 -5 1c-7 0 -12 -5 -12 -12s5 -12 12 -12c6 0 8 4 10 7zM107 300c-2 11 -3 20 -3 28v9c-44 -2 -78 -38 -78 -82 c0 -45 83 -219 83 -219s27 57 50 114c-11 27 -22 54 -31 80c-6 -3 -12 -5 -19 -5c-21 0 -38 16 -38 37c0 20 16 37 36 38zM257 453h-1h-2c-69 0 -125 -57 -125 -125s127 -333 127 -333s128 265 128 333s-56 125 -125 125h-2zM399 273l-6 -18c2 -3 6 -5 10 -5c7 0 12 5 12 12 c0 4 -3 8 -4 9s-4 3 -8 3c-1 0 -3 0 -4 -1zM384 230c-9 -26 -20 -54 -31 -81c23 -56 50 -113 50 -113s83 174 83 219c0 43 -34 79 -77 81v-8c0 -8 -2 -18 -4 -29c20 -1 35 -17 35 -37c0 -21 -16 -37 -37 -37c-7 0 -14 2 -19 5zM256 282c-32 0 -57 25 -57 57s25 58 57 58 s57 -26 57 -58s-25 -57 -57 -57zM256 371c-18 0 -32 -14 -32 -32s14 -31 32 -31s32 13 32 31s-14 32 -32 32z"/>
    <glyph glyph-name="v" unicode="v" d="M512 269v-1v-241c0 -26 -22 -48 -48 -48h-417c-26 0 -47 22 -47 48v241v1v69c0 26 21 47 47 47h118v32c0 2 1 52 91 52c89 0 90 -51 90 -53v-31h118c26 0 48 -21 48 -47v-69zM464 7c11 0 20 9 20 20v192c-9 -6 -20 -9 -32 -9h-393c-12 0 -23 3 -32 9v-192 c0 -11 9 -20 20 -20h417zM484 338c0 11 -9 20 -20 20h-417c-11 0 -20 -9 -20 -20v-70c0 -17 15 -30 32 -30h393c17 0 32 13 32 30v70zM193 417v-32h126v31c-1 8 -14 25 -62 25c-53 0 -64 -19 -64 -24zM418 56l-68 16l11 47l68 -16z"/>
    <glyph glyph-name="w" unicode="w" d="M450 263c36 -15 62 -51 62 -93c0 -56 -45 -101 -101 -101h-5h-50l32 39c14 17 17 38 9 56s-26 29 -48 29h-23v57c0 34 -27 61 -61 61h-21c-34 0 -61 -27 -61 -61v-57h-23c-22 0 -40 -11 -48 -29s-5 -39 9 -56l33 -39h-50h-1v0h-1c-56 1 -102 48 -102 104 c0 38 21 70 51 88c-2 7 -4 14 -4 21c0 39 32 70 71 70c16 0 31 -5 43 -14c24 51 76 87 137 87c84 0 152 -69 152 -153v-9zM349 150c10 0 12 -6 6 -14l-89 -107c-3 -4 -7 -6 -11 -6s-9 2 -12 6l-89 107c-6 8 -4 14 6 14h65v100c0 10 9 18 19 18h21c10 0 19 -8 19 -18v-100h65 z"/>
    <glyph glyph-name="x" unicode="x" d="M373 319c7 -5 10 -14 10 -27c0 0 -1 -47 -19 -58c-3 -2 -6 -2 -9 -3c-10 -25 -20 -54 -31 -71c53 -11 79 -31 116 -47c70 -31 72 -68 72 -72v-67h-512v67c0 4 2 41 72 72c36 16 62 36 115 47c-11 17 -21 46 -31 71c-3 1 -6 1 -9 3c-18 11 -20 58 -20 58c0 13 4 22 11 27 c-1 21 -4 48 1 66c7 25 17 58 42 63c17 17 44 26 79 26c10 0 15 -1 22 -1c15 0 46 -10 67 -33c17 -18 16 -32 22 -55c5 -18 3 -45 2 -66zM282 446c-7 0 -12 1 -22 1c-20 0 -48 -4 -62 -21l-4 -4h-6c-10 0 -19 -32 -23 -45c-4 -15 0 -43 0 -62v-3v-12l-10 -3 c-2 -13 3 -33 6 -39h1l12 2l4 -13c3 -8 6 -15 9 -22c12 -31 20 -54 34 -64l26 -20l-33 -4c-63 -8 -91 -31 -131 -49c-51 -23 -56 -46 -56 -48v-39l458 1v39s-3 24 -56 48c-41 18 -69 40 -133 48l-32 4l26 20c14 11 23 34 35 66c2 7 5 13 8 20l4 13l11 -2h1c3 6 9 26 7 39 l-10 3v10v5c0 19 3 47 -1 62c-5 17 -5 33 -15 44c-16 17 -41 25 -48 25z"/>
    <glyph glyph-name="z" unicode="z" d="M485 395c14 0 27 -11 27 -27v-1v-2v-269c0 -25 -21 -43 -43 -43h-426c-22 0 -43 18 -43 43v269c0 17 11 30 27 30h458zM469 80c8 0 16 7 16 16v237l-212 -179c-5 -4 -11 -6 -17 -6s-12 2 -17 6l-212 179v-237c0 -9 8 -16 16 -16h426zM485 368h-458l229 -193z"/>
    <glyph glyph-name="A" unicode="A" d="M31 30c-16 0 -31 13 -31 31v284c0 3 1 6 2 9c84 -72 167 -145 254 -214c87 69 170 142 254 214c1 -3 2 -6 2 -9v-284c0 -3 -1 -7 -2 -10v0c-4 -12 -15 -21 -29 -21h-450zM256 177c-22 18 -44 35 -66 53l-168 144c3 1 6 2 9 2h450c3 0 6 -1 9 -2 c-63 -54 -126 -109 -190 -162z"/>
    <glyph glyph-name="B" unicode="B" d="M432 -32h-352c-7 0 -13 6 -13 13v384c0 4 1 6 4 9l100 101c2 3 7 5 11 5h250c7 0 13 -6 13 -13v-486c0 -7 -6 -13 -13 -13zM94 -5h324v458h-230l-94 -94v-364zM229 304h-102c-7 0 -13 7 -13 14s6 13 13 13h88v88c0 7 7 14 14 14s13 -7 13 -14v-101c0 -7 -6 -14 -13 -14z M354 218h-196c-7 0 -13 6 -13 13s6 14 13 14h196c7 0 13 -7 13 -14s-6 -13 -13 -13zM354 139h-196c-7 0 -13 6 -13 13s6 14 13 14h196c7 0 13 -7 13 -14s-6 -13 -13 -13zM354 59h-196c-7 0 -13 7 -13 14s6 13 13 13h196c7 0 13 -6 13 -13s-6 -14 -13 -14z"/>
    <glyph glyph-name="C" unicode="C" d="M344 387h-176c-8 0 -17 -5 -20 -12l-13 -26v-1h-96c-8 0 -13 -5 -13 -13v-260c0 -8 5 -14 13 -14h434c8 0 13 6 13 14v260c0 8 -5 13 -13 13h-96v1l-13 26c-3 7 -12 12 -20 12zM256 107c-55 0 -100 45 -100 100s45 99 100 99s99 -44 99 -99s-44 -100 -99 -100zM344 413 c17 0 35 -12 43 -27l6 -12h80c22 0 39 -17 39 -39v-260c0 -22 -17 -40 -39 -40h-434c-22 0 -39 18 -39 40v260c0 22 17 39 39 39h80l6 12c8 15 26 27 43 27h176zM256 133c41 0 73 33 73 74s-32 73 -73 73s-74 -32 -74 -73s33 -74 74 -74z"/>
    <glyph glyph-name="D" unicode="D" d="M337 -32c-52 0 -95 42 -95 94c0 15 5 25 3 28l-42 43s-2 1 -3 1s-13 -4 -25 -4c-52 0 -94 43 -94 95s42 94 94 94c13 0 27 -5 28 -5s2 1 2 1l41 41c2 3 -4 15 -4 30c0 52 43 94 95 94s94 -42 94 -94s-42 -95 -94 -95c-13 0 -25 4 -26 4s-3 -1 -3 -1l-42 -41 c-2 -3 4 -13 4 -28s-6 -28 -4 -31l41 -41s1 -1 2 -1s15 5 28 5c52 0 94 -43 94 -95s-42 -94 -94 -94zM175 157c16 0 15 4 25 4c8 0 17 -4 22 -9l42 -43c7 -7 11 -19 8 -29c0 0 -3 -9 -3 -18c0 -37 31 -67 68 -67s67 30 67 67s-30 68 -67 68c-9 0 -19 -3 -19 -3 c-10 -3 -23 0 -30 7l-42 41c-7 7 -10 20 -7 30c0 0 4 11 4 20s-3 17 -3 17c-3 10 0 23 7 30l42 42c7 7 20 10 30 7c0 0 9 -3 18 -3c37 0 67 31 67 68s-30 67 -67 67s-68 -30 -68 -67c0 -9 3 -19 3 -19c3 -10 0 -23 -7 -30l-41 -41c-7 -7 -20 -10 -30 -7c0 0 -10 3 -19 3 c-37 0 -67 -30 -67 -67s30 -68 67 -68z"/>
    <glyph glyph-name="E" unicode="E" d="M263 454l-95 -267l-53 81l-89 -83l25 -22l57 54l69 -107l81 226l88 -342l76 238l31 -98l33 9l-64 205l-72 -228zM263 480c12 0 22 -8 25 -19l64 -249l46 144c3 11 13 17 24 17s21 -6 24 -17l65 -206c5 -16 -6 -29 -18 -32l-34 -9c-2 -1 -4 -1 -6 -1c-11 0 -22 7 -25 18 l-6 21l-51 -161c-3 -11 -14 -18 -25 -18v0c-11 0 -22 8 -25 19l-67 261l-52 -147c-3 -10 -13 -17 -25 -17c-9 0 -16 5 -21 12l-53 81c-12 -11 -23 -22 -35 -33c-5 -5 -11 -7 -17 -7s-12 3 -17 7l-25 21c-11 10 -12 28 -1 38l90 84c5 4 11 7 17 7c10 0 17 -5 22 -12l24 -38 l78 219c4 10 13 17 24 17z"/>
    <glyph glyph-name="F" unicode="F" d="M138 440h374v-82h-374v82zM138 266h374v-83h-374v83zM138 90h374v-82h-374v82zM82 399c0 -23 -18 -41 -41 -41s-41 18 -41 41s18 41 41 41s41 -18 41 -41zM82 225c0 -23 -18 -41 -41 -41s-41 18 -41 41s18 41 41 41s41 -18 41 -41zM82 49c0 -23 -18 -41 -41 -41 s-41 18 -41 41s18 41 41 41s41 -18 41 -41z"/>
    <glyph glyph-name="G" unicode="G" d="M88 -12c41 5 51 15 62 54l94 344c4 15 8 27 8 42c0 13 -4 21 -11 24s-22 6 -45 8v20h228v-20c-41 -6 -51 -15 -62 -55l-94 -343l-6 -27c-1 -4 -2 -9 -2 -14c0 -13 4 -22 11 -25s22 -6 45 -8v-20h-228v20z"/>
    <glyph glyph-name="H" unicode="H" d="M94 407c0 43 -22 51 -66 54v19h234c45 0 82 -6 112 -16c56 -19 85 -54 85 -106c0 -31 -11 -57 -34 -75s-48 -30 -75 -35v-7c28 -5 53 -14 74 -27c40 -25 60 -60 60 -105c0 -42 -19 -76 -58 -102s-90 -39 -154 -39h-244v19c44 2 66 12 66 54v366zM257 457 c-30 0 -42 -8 -42 -37v-170c47 0 79 8 95 23s24 43 24 82c0 29 -6 52 -16 72s-31 30 -61 30zM215 38c1 -31 12 -46 42 -46c72 0 97 41 97 113c0 54 -16 89 -48 107c-19 11 -50 16 -91 15v-189z"/>
    <glyph glyph-name="I" unicode="I" d="M194 323l-104 -99l105 -99l-49 -39l-146 138l145 138zM366 362l146 -138l-145 -138l-49 39l104 99l-105 99z"/>
    <glyph glyph-name="J" unicode="J" d="M329 341c13 -10 19 -27 19 -49c0 -11 -1 -36 -6 -52l-25 -105c4 2 8 4 13 4c11 0 19 -6 23 -15l13 -29c7 -10 8 -23 -1 -33c-45 -50 -113 -94 -149 -94v0c-35 0 -55 27 -55 63c0 11 2 35 6 54l23 100c-3 -1 -7 -3 -11 -3c-12 0 -21 8 -24 17l-13 36c-4 12 1 22 9 30 c30 28 71 58 105 74c-20 11 -33 33 -33 62c0 38 30 79 79 79h1c38 0 66 -29 66 -68c0 -30 -16 -57 -40 -71zM344 412c0 24 -16 43 -41 43h-1c-36 0 -54 -31 -54 -54c0 -27 16 -45 41 -45v0c32 0 55 28 55 56zM186 31c0 -23 10 -37 30 -37v0c22 0 84 33 130 85 c-6 11 -11 23 -16 34l-4 -3c-17 -16 -44 -35 -48 -35v4c0 3 0 9 2 16l37 151c3 14 5 36 5 46c0 18 -5 34 -22 34v0c-27 0 -87 -38 -134 -82l13 -36l5 3c13 10 38 29 44 31c0 -3 0 -9 -2 -17l-34 -146c-4 -16 -6 -38 -6 -48z"/>
    <glyph glyph-name="K" unicode="K" d="M414 291c5 -4 8 -11 8 -20c0 0 -1 -32 -14 -40c-2 -1 -4 -2 -6 -2c-7 -18 -14 -38 -22 -50c37 -8 55 -22 81 -33c49 -22 51 -47 51 -50v-47h-358h-154v40c0 3 1 24 41 42c20 9 34 20 62 26c-6 10 -10 24 -15 37c-15 3 -17 33 -17 35c0 7 2 14 6 17c0 12 -2 26 1 36 c4 14 9 34 24 37c10 10 26 15 46 15c6 0 8 -1 12 -1c9 0 27 -6 39 -19c10 -10 9 -19 13 -32c3 -10 1 -24 1 -36c4 -4 6 -10 6 -17c0 -2 -2 -32 -17 -35c-5 -13 -10 -27 -16 -37c9 -2 17 -5 24 -8c22 11 41 23 74 30c-8 12 -15 33 -22 50c-2 0 -4 1 -6 2c-13 8 -14 40 -14 40 c0 9 3 16 8 20c0 15 -2 33 1 45c5 18 11 42 29 45c12 12 30 18 55 18c7 0 11 -1 16 -1c10 0 32 -7 47 -23c12 -12 11 -23 15 -39c4 -13 1 -30 1 -45zM19 88v-20h135v28c0 3 0 22 32 41c-6 1 -11 3 -18 4l-23 3l-23 -3c-35 -5 -50 -17 -73 -27c-27 -12 -30 -25 -30 -26z M160 314c-4 0 -7 1 -12 1c-11 0 -26 -2 -34 -11l-3 -3h-4c-2 0 -6 -4 -11 -24c-2 -8 0 -24 0 -34v-2v-8l-6 -2v-1c0 -6 2 -14 3 -18l7 2l3 -8c7 -17 15 -41 24 -48l18 -14l18 14c9 7 17 30 24 47l3 9l7 -2c1 4 3 12 3 18v1l-6 2v7v3c0 10 2 26 0 34c-3 9 -4 19 -9 24 c-9 9 -21 13 -25 13zM351 379c-5 0 -9 1 -16 1c-14 0 -33 -2 -43 -14l-3 -4h-4c-7 0 -13 -22 -16 -31c-3 -10 0 -30 0 -43v-2v-9l-7 -2c-1 -9 2 -23 4 -27h1l8 1l3 -9c9 -22 19 -51 30 -60l18 -14l-22 -3c-44 -6 -64 -21 -92 -34c-36 -16 -40 -33 -40 -34v-27h321v28 s-3 17 -40 33c-28 13 -47 28 -92 34l-23 3l18 14c11 9 21 38 30 60l3 9l8 -1h1c2 4 5 18 4 27l-6 2l-1 7c0 1 1 3 1 4c0 13 2 33 -1 43c-3 12 -4 24 -11 31c-11 12 -28 17 -33 17z"/>
    <glyph glyph-name="L" unicode="L" d="M256 480c141 0 256 -115 256 -256s-115 -256 -256 -256s-256 115 -256 256s115 256 256 256zM320 368c0 19 -12 33 -31 33c-27 0 -41 -24 -41 -41c0 -20 11 -34 30 -34h1c24 0 41 20 41 42zM201 79c0 -17 7 -28 22 -28v0c17 0 64 26 99 65c-5 8 -9 17 -13 26 c-12 -11 -35 -29 -39 -29v3c0 3 1 6 2 12l28 114c2 11 4 27 4 35c0 13 -4 26 -17 26c-20 0 -66 -29 -102 -62l10 -28c10 7 32 24 37 26c0 -2 -1 -6 -2 -12l-25 -111c-3 -12 -4 -29 -4 -37z"/>
    <glyph glyph-name="y" unicode="y" d="M512 210l-33 -36c-15 14 -29 27 -44 41v-214h-123v95s0 62 -56 62s-56 -62 -56 -62v-95h-122v214c-15 -14 -30 -27 -45 -41l-33 36l256 237zM256 216c21 0 39 18 39 39s-18 38 -39 38s-38 -17 -38 -38s17 -39 38 -39z"/>
    <glyph glyph-name="M" unicode="M" d="M481 219c8 -8 14 -17 19 -26c8 -14 12 -32 12 -49c0 -33 -13 -58 -31 -76l-39 -39c-42 -42 -109 -42 -151 0l-96 97c-19 19 -31 42 -31 75c0 34 14 58 31 75l17 17c12 -12 26 -25 38 -37c2 -2 3 -5 3 -8l-15 -15c-7 -7 -13 -18 -13 -32c0 -13 6 -25 13 -32l97 -97 c8 -8 20 -13 32 -13s24 5 32 13l39 39c7 7 13 19 13 33s-5 23 -13 31l-60 61v10c0 8 -1 17 -2 25c-5 27 -17 51 -36 71c16 -5 33 -15 45 -27zM317 323c19 -19 31 -43 31 -76c0 -34 -14 -58 -31 -75l-17 -17c-12 12 -26 25 -38 37c-2 2 -3 5 -3 8l15 15c7 7 13 18 13 32 c0 13 -6 25 -13 32c-32 32 -64 65 -96 97c-17 17 -48 17 -65 0l-39 -39c-7 -7 -13 -19 -13 -33s5 -23 13 -31l60 -61v-10c0 -8 1 -17 2 -25c5 -27 17 -51 36 -71c-16 5 -33 14 -45 27l-96 96c-7 7 -15 16 -19 26c-7 16 -12 33 -12 50c0 33 13 57 31 75l39 39 c42 42 110 41 151 0l76 -76z"/>
    <glyph glyph-name="N" unicode="N" d="M256 400c27 0 49 -22 49 -49s-22 -49 -49 -49s-49 22 -49 49s22 49 49 49zM256 327c13 0 23 11 23 24s-10 23 -23 23s-24 -10 -24 -23s11 -24 24 -24zM325 150v121h43v-121c-7 -6 -10 -15 -10 -25h-22c0 10 -4 19 -11 25zM234 150v121h43v-121c-7 -6 -11 -15 -11 -25h-21 c0 10 -4 19 -11 25zM144 150v121h42v-121c-7 -6 -11 -15 -11 -25h-21c0 10 -3 19 -10 25zM490 91c13 -6 22 -19 22 -34v-34c0 -20 -17 -37 -37 -37h-438c-20 0 -37 17 -37 37v34c0 15 9 27 21 33c-1 3 -1 6 -1 9v15c0 20 17 37 37 37h8c1 3 3 5 5 8v86h-12 c-20 0 -38 17 -38 37v19c0 15 9 31 22 39l190 116c7 4 15 6 23 6s16 -2 23 -6l191 -116c13 -8 22 -24 22 -39v-18c0 -20 -17 -38 -37 -38h-12v-86c2 -3 4 -5 5 -8h6c20 0 38 -17 38 -37v-15c0 -3 -1 -6 -1 -8zM486 23v34c0 6 -5 12 -11 12h-438c-6 0 -11 -6 -11 -12v-34 c0 -6 5 -11 11 -11h438c6 0 11 5 11 11zM46 99c0 -2 0 -4 1 -5h417c1 1 1 3 1 5v15c0 6 -6 11 -12 11h-26c0 10 -4 19 -11 25v121h38c6 0 11 6 11 12v18c0 6 -4 15 -9 18l-191 115c-3 2 -6 2 -10 2s-7 0 -10 -2l-189 -115c-5 -3 -10 -12 -10 -18v-19c0 -6 6 -11 12 -11h38 v-121c-7 -6 -11 -15 -11 -25h-28c-6 0 -11 -5 -11 -11v-15z"/>
    <glyph glyph-name="O" unicode="O" d="M109 42c-61 0 -109 52 -109 112c0 36 17 69 46 90c-1 5 -1 8 -1 13c0 44 36 81 80 81c13 0 24 -3 35 -9c28 47 80 77 135 77c87 0 158 -71 158 -158v0c36 -19 59 -56 59 -97c0 -60 -49 -109 -109 -109h-6h-115c-7 0 -14 7 -14 14v94c0 7 7 13 14 13h50l-77 92 c-1 1 -1 1 -2 0l-77 -92h51c7 0 13 -6 13 -13v-94c0 -7 -6 -14 -13 -14h-115h-2h-1zM397 69h6c45 0 82 37 82 82c0 33 -20 63 -51 76c-9 4 -8 11 -8 21c0 72 -59 131 -131 131c-50 0 -96 -30 -118 -75c-3 -7 -13 -11 -20 -5c-9 7 -20 12 -32 12c-29 0 -54 -25 -54 -54 c0 -12 8 -24 -3 -31c-26 -15 -41 -42 -41 -72c0 -46 37 -84 83 -85h1h102v67h-48c-14 0 -19 8 -21 12s-5 13 4 24l85 101c6 7 13 10 21 10s16 -3 22 -10l84 -101c9 -11 7 -20 5 -24s-7 -12 -21 -12h-49v-67h102z"/>
    <glyph glyph-name="P" unicode="P" d="M484 182c37 -37 37 -96 0 -133l-53 -53c-18 -18 -42 -28 -67 -28s-48 10 -66 28l-78 77c-24 24 -32 59 -24 91c-8 -2 -16 -3 -24 -3c-25 0 -49 9 -67 27l-77 78c-18 18 -28 41 -28 66s10 49 28 67l53 53c18 18 42 28 67 28s48 -10 66 -28l78 -77c24 -24 32 -59 24 -91 c8 2 16 3 24 3c25 0 49 -9 67 -27zM176 304c-11 -11 -11 -31 0 -42l116 -116c6 -6 13 -9 21 -9s15 3 21 9c11 11 11 30 0 41l-117 117c-6 6 -13 9 -21 9s-14 -3 -20 -9zM143 294c4 21 22 38 43 42l-38 39l-43 -43zM367 156c-4 -21 -22 -39 -43 -43l40 -40l43 43zM123 206 c14 -14 31 -20 49 -20c12 0 24 3 35 10l-45 45l-2 2l-78 77c-7 7 -7 18 0 25l53 53c3 3 9 5 13 5s9 -2 12 -5l77 -78c1 -1 2 -2 3 -4l44 -44c16 27 13 62 -10 85l-77 78c-14 14 -31 20 -49 20s-35 -6 -49 -20l-54 -54c-27 -27 -27 -71 0 -98zM467 67c27 27 27 71 0 98 l-78 77c-14 14 -31 20 -49 20c-12 0 -25 -3 -36 -10l44 -44c2 -1 3 -2 4 -3l78 -77c7 -7 7 -18 0 -25l-53 -53c-3 -3 -9 -5 -13 -5s-9 2 -12 5l-77 78l-2 2l-45 45c-16 -27 -13 -61 10 -84l77 -78c14 -14 31 -20 49 -20s36 6 50 20z"/>
    <glyph glyph-name="Q" unicode="Q" d="M392 -32c-3 0 -7 1 -10 4l-126 126l-126 -126c-3 -3 -6 -4 -10 -4s-6 1 -9 4l-107 107c-5 5 -5 14 0 19l126 126l-126 126c-5 5 -5 14 0 19l107 107c5 5 14 5 19 0l126 -126l126 126c5 5 14 5 19 0l107 -107c3 -3 4 -5 4 -9s-1 -7 -4 -10l-126 -126l126 -126 c5 -5 5 -14 0 -19l-107 -107c-3 -3 -6 -4 -9 -4zM256 131c3 0 7 -1 10 -4l126 -126l87 87l-126 126c-3 3 -4 6 -4 10s1 7 4 10l126 126l-87 87l-126 -126c-5 -5 -15 -5 -20 0l-126 126l-87 -87l126 -126c3 -3 4 -6 4 -10s-1 -7 -4 -10l-126 -126l87 -87l126 126 c3 3 7 4 10 4z"/>
  </font>
</defs>
</svg>
