<?xml version="1.0" encoding="UTF-8" standalone="no"?>
<svg width="256px" height="256px" viewBox="0 0 256 256" version="1.1" xmlns="http://www.w3.org/2000/svg" xmlns:xlink="http://www.w3.org/1999/xlink" xmlns:sketch="http://www.bohemiancoding.com/sketch/ns">
    <!-- Generator: Sketch 3.3.1 (12002) - http://www.bohemiancoding.com/sketch -->
    <title>Untitled 2</title>
    <desc>Created with Sketch.</desc>
    <defs></defs>
    <g id="Page-1" stroke="none" stroke-width="1" fill="none" fill-rule="evenodd" sketch:type="MSPage">
        <path d="M231.199,85.991 C236.642,80.251 240,72.515 240,64 C240,46.355 225.645,32 208,32 C190.355,32 176,46.355 176,64 C176,72.519 179.359,80.256 184.807,85.996 C181.797,87.664 178.995,89.657 176.424,91.908 C171.119,82.801 163.324,75.314 153.973,70.398 C162.553,63.056 168,52.152 168,40 C168,17.944 150.057,4.54747351e-13 128,4.54747351e-13 C105.943,4.54747351e-13 88,17.944 88,40 C88,52.151 93.447,63.054 102.027,70.396 C92.677,75.312 84.882,82.796 79.578,91.902 C77.01,89.651 74.209,87.658 71.199,85.99 C76.642,80.25 80,72.514 80,63.999 C80,46.354 65.645,31.999 48,31.999 C30.355,31.999 16,46.354 16,63.999 C16,72.518 19.359,80.255 24.807,85.995 C10.03,94.187 0,109.94 0,127.999 L0,159.999 C0,168.836 7.164,175.999 16,175.999 L16,215.999 C16,224.836 23.164,231.999 32,231.999 L64,231.999 C72.836,231.999 80,224.836 80,215.999 L80,189.841 C82.355,191.205 85.082,191.999 88,191.999 L88,239.999 C88,248.836 95.163,255.999 104,255.999 L152,255.999 C160.836,255.999 168,248.836 168,239.999 L168,191.999 C170.918,191.999 173.645,191.206 176,189.841 L176,216 C176,224.837 183.164,232 192,232 L224,232 C232.836,232 240,224.837 240,216 L240,176 C248.836,176 256,168.837 256,160 L256,128 C256,109.942 245.975,94.184 231.199,85.991 L231.199,85.991 Z M48,48 C56.836,48 64,55.164 64,64 C64,72.837 56.836,80 48,80 C39.163,80 32,72.837 32,64 C32,55.164 39.163,48 48,48 L48,48 Z M64,132 L64,216 L52,216 L52,160 C52,157.791 50.209,156 48,156 C45.791,156 44,157.791 44,160 L44,216 L32,216 L32,132 C32,129.791 30.209,128 28,128 C25.791,128 24,129.791 24,132 L24,160 L16,160 L16,128 C16,110.328 30.326,96 48,96 C58.252,96 67.369,100.826 73.227,108.324 C72.424,112.091 72,115.997 72,120 L72,128 L68,128 C65.791,128 64,129.791 64,132 L64,132 Z M208,48 C216.836,48 224,55.164 224,64 C224,72.837 216.836,80 208,80 C199.163,80 192,72.837 192,64 C192,55.164 199.163,48 208,48 L208,48 Z M128,16 C141.255,16 152,26.746 152,40 C152,53.255 141.255,64 128,64 C114.745,64 104,53.255 104,40 C104,26.746 114.745,16 128,16 L128,16 Z M168,176 L160,176 L160,124 C160,121.791 158.209,120 156,120 C153.791,120 152,121.791 152,124 L152,240 L132,240 L132,176 C132,173.791 130.209,172 128,172 C125.791,172 124,173.791 124,176 L124,240 L104,240 L104,124 C104,121.791 102.209,120 100,120 C97.791,120 96,121.791 96,124 L96,176 L88,176 L88,120 C88,97.91 105.908,80 128,80 C150.092,80 168,97.91 168,120 L168,176 L168,176 Z M240,160 L232,160 L232,132 C232,129.791 230.209,128 228,128 C225.791,128 224,129.791 224,132 L224,216 L212,216 L212,160 C212,157.791 210.209,156 208,156 C205.791,156 204,157.791 204,160 L204,216 L192,216 L192,132 C192,129.791 190.209,128 188,128 L184,128 L184,120 C184,115.997 183.576,112.091 182.773,108.324 C188.63,100.826 197.748,96 208,96 C225.674,96 240,110.328 240,128 L240,160 L240,160 Z" id="Shape" fill="#000000" sketch:type="MSShapeGroup"></path>
    </g>
</svg>